<?xml version="1.0" ?>
<!DOCTYPE svg PUBLIC '-//W3C//DTD SVG 1.1//EN' 'http://www.w3.org/Graphics/SVG/1.1/DTD/svg11.dtd'><svg height="8.4666mm"
   style="shape-rendering:geometricPrecision; text-rendering:geometricPrecision; image-rendering:optimizeQuality; fill-rule:white; clip-rule:evenodd"
   version="1.1" viewBox="0 0 846.66 846.66" width="8.4666mm" xml:space="preserve" xmlns="http://www.w3.org/2000/svg"
   xmlns:xlink="http://www.w3.org/1999/xlink">
   <defs>
      <style type="text/css">
         <![CDATA[
         .fil0 {
            fill: rgb(255, 255, 255);
            fill-rule: nonzero
         }
         ]]>
      </style>
   </defs>
   <g id="Layer_x0020_1">
      <path class="fil0"
         d="M740.11 160.23c0,-27.13 41.26,-27.13 41.26,0l0 568.67c0,11.39 -9.24,20.63 -20.63,20.63l-142.59 0 0 44.99 25.55 0c27.13,0 27.13,41.27 0,41.27 -146.91,0 -293.83,0 -440.74,0 -27.13,0 -27.13,-41.27 0,-41.27l25.55 0 0 -44.99 -142.59 0c-11.39,0 -20.63,-9.24 -20.63,-20.63l0 -568.67c0,-27.13 41.26,-27.13 41.26,0l0 478.86 384.77 0 0 -165.13c0,-27.14 41.26,-27.14 41.26,0l0 165.13 25.08 0 0 -256.12c0,-27.14 41.26,-27.14 41.26,0l0 256.12 25.09 0 0 -256.12c0,-27.14 41.26,-27.14 41.26,0l0 256.12 74.84 0 0 -478.86zm-552.85 99.83l175.83 0c11.39,0 20.63,9.24 20.63,20.63l0 285.94c0,11.4 -9.24,20.63 -20.63,20.63l-175.83 0c-11.39,0 -20.63,-9.23 -20.63,-20.63l0 -285.94c0,-11.39 9.24,-20.63 20.63,-20.63zm155.2 41.26l-134.57 0 0 244.68 134.57 0 0 -244.68zm149.18 -270.09c0,-27.14 41.27,-27.14 41.27,0l0 10.68 42.53 0c27.13,0 27.13,41.26 0,41.26l-42.53 0 0 53.76 11.22 0c37.52,0 68.14,30.62 68.14,68.14 0,37.51 -30.62,68.13 -68.14,68.13l-11.22 0 0 10.68c0,27.14 -41.27,27.14 -41.27,0l0 -10.68 -42.53 0c-27.14,0 -27.14,-41.26 0,-41.26l42.53 0 0 -53.75 -11.22 0c-37.52,0 -68.14,-30.63 -68.14,-68.14 0,-37.52 30.62,-68.14 68.14,-68.14l11.22 0 0 -10.68zm41.27 146.96l0 53.75 11.22 0c14.73,0 26.87,-12.14 26.87,-26.87 0,-14.74 -12.14,-26.88 -26.87,-26.88l-11.22 0zm-41.27 -41.26l0 -53.76 -11.22 0c-14.74,0 -26.88,12.14 -26.88,26.88 0,14.73 12.14,26.88 26.88,26.88l11.22 0zm85.25 612.6l-307.12 0 0 44.99 307.12 0 0 -44.99zm-470.34 -69.18l0 27.92c211.19,0 422.37,0 633.56,0l0 -27.92c-211.19,0 -422.37,0 -633.56,0z" />
   </g>
</svg>