<svg xmlns="http://www.w3.org/2000/svg" xmlns:xlink="http://www.w3.org/1999/xlink" width="500" zoomAndPan="magnify" viewBox="0 0 375 374.999991" height="500" preserveAspectRatio="xMidYMid meet" version="1.0"><defs><g/><clipPath id="da4bc7a447"><path d="M 53.363281 37.5 L 300.863281 37.5 L 300.863281 232.5 L 53.363281 232.5 Z M 53.363281 37.5 " clip-rule="nonzero"/></clipPath><clipPath id="4838b39cd9"><path d="M 213.730469 108.785156 C 217.542969 109.503906 221.292969 110.410156 224.957031 111.496094 C 224.828125 112.886719 225.183594 114.21875 225.882812 115.320312 C 225.851562 115.269531 225.820312 115.214844 225.789062 115.160156 C 225.777344 115.144531 225.765625 115.125 225.753906 115.105469 C 225.347656 114.398438 225.09375 113.636719 224.988281 112.875 C 224.984375 112.847656 224.984375 112.820312 224.980469 112.792969 C 224.949219 112.550781 224.9375 112.308594 224.9375 112.070312 C 224.9375 109.976562 226.03125 107.9375 227.972656 106.808594 C 228.929688 106.261719 229.96875 106 231 106 C 233.105469 106 235.152344 107.089844 236.28125 109.039062 C 236.65625 109.695312 236.898438 110.386719 237.015625 111.085938 C 237.066406 111.410156 237.09375 111.734375 237.09375 112.058594 C 237.097656 113.246094 236.746094 114.414062 236.089844 115.410156 C 240.203125 117.097656 244.203125 119.019531 248.050781 121.167969 C 247.679688 121.863281 247.269531 122.53125 246.816406 123.175781 C 246.824219 123.164062 246.835938 123.152344 246.84375 123.140625 C 251.050781 117.125 251.621094 108.972656 247.667969 102.296875 C 245.328125 98.34375 241.824219 95.523438 237.839844 94.023438 C 237.476562 93.902344 237.109375 93.792969 236.734375 93.695312 C 234.953125 93.167969 233.09375 92.894531 231.214844 92.894531 C 228.625 92.894531 226.011719 93.417969 223.527344 94.5 C 223.496094 94.515625 223.464844 94.527344 223.433594 94.542969 L 201.804688 82.078125 L 179.652344 94.84375 L 161.277344 84.253906 L 200.484375 61.644531 L 264.113281 98.3125 L 264.113281 121.382812 L 200.460938 158.097656 L 136.820312 121.398438 C 136.816406 121.402344 136.816406 121.402344 136.8125 121.40625 L 91.96875 95.550781 C 92.214844 91.785156 91.316406 88.046875 89.414062 84.769531 C 86.273438 79.347656 80.828125 75.867188 74.714844 75.21875 C 66.152344 74.3125 57.972656 79.226562 54.765625 87.210938 C 52.632812 92.519531 52.871094 98.71875 55.957031 104.054688 C 56.964844 105.792969 58.203125 107.316406 59.613281 108.609375 C 59.613281 108.609375 59.613281 108.613281 59.613281 108.613281 C 64.980469 113.539062 72.683594 115.023438 79.476562 112.464844 L 115.917969 133.484375 L 115.917969 135.925781 L 115.929688 135.953125 L 115.929688 183.738281 L 200.484375 232.5 L 271.777344 191.40625 C 274.941406 193.246094 278.597656 194.152344 282.226562 194.015625 C 285.316406 193.902344 288.394531 193.050781 291.191406 191.4375 C 300.429688 186.128906 303.605469 174.320312 298.257812 165.09375 C 293.429688 156.722656 283.25 153.34375 274.5 156.769531 C 267.839844 159.367188 263.09375 165.457031 262.320312 172.679688 L 200.453125 208.351562 L 146.597656 177.316406 C 146.601562 177.316406 146.609375 177.316406 146.613281 177.320312 L 136.828125 171.6875 L 136.828125 145.535156 L 190.023438 176.195312 L 200.496094 182.230469 L 273.433594 140.175781 L 285.011719 133.496094 L 285.011719 86.257812 C 266.796875 75.765625 248.589844 65.257812 230.375 54.746094 C 230.371094 54.746094 230.371094 54.75 230.367188 54.75 C 220.398438 49 210.425781 43.246094 200.453125 37.5 L 140.324219 72.175781 L 136.179688 69.78125 C 136.335938 66.121094 135.460938 62.5 133.605469 59.289062 C 128.257812 50.050781 116.449219 46.910156 107.222656 52.230469 C 97.976562 57.558594 94.808594 69.339844 100.148438 78.574219 C 104.953125 86.882812 115.117188 90.378906 123.980469 86.871094 L 164.730469 110.359375 C 164.726562 110.363281 164.71875 110.363281 164.714844 110.363281 L 179.683594 118.976562 L 201.867188 106.207031 C 205.828125 108.484375 209.484375 110.988281 213.324219 113.390625 C 213.320312 113.332031 213.316406 113.273438 213.3125 113.21875 C 214.046875 122.867188 222.121094 130.472656 231.976562 130.472656 C 238.019531 130.472656 243.390625 127.613281 246.816406 123.175781 C 247.269531 122.53125 247.679688 121.863281 248.050781 121.167969 C 244.203125 119.019531 240.203125 117.097656 236.089844 115.410156 C 236.078125 115.425781 236.066406 115.441406 236.058594 115.457031 C 235.84375 115.777344 235.59375 116.078125 235.316406 116.355469 C 235.316406 116.359375 235.3125 116.359375 235.3125 116.359375 C 235.09375 116.582031 234.851562 116.785156 234.59375 116.972656 C 234.59375 116.972656 234.59375 116.972656 234.589844 116.972656 C 234.296875 117.1875 233.980469 117.375 233.652344 117.535156 C 233.144531 117.78125 232.601562 117.957031 232.042969 118.050781 C 232.03125 118.054688 232.023438 118.054688 232.011719 118.058594 C 231.84375 118.085938 231.675781 118.105469 231.503906 118.121094 C 231.503906 118.121094 231.5 118.121094 231.5 118.121094 C 231.339844 118.132812 231.179688 118.140625 231.015625 118.140625 C 230.917969 118.140625 230.816406 118.136719 230.71875 118.132812 C 229.820312 118.089844 228.980469 117.855469 228.238281 117.46875 C 227.269531 116.972656 226.460938 116.226562 225.886719 115.324219 C 225.886719 115.324219 225.886719 115.320312 225.886719 115.320312 C 225.183594 114.21875 224.828125 112.886719 224.960938 111.496094 C 221.292969 110.410156 217.546875 109.503906 213.734375 108.785156 Z M 78.082031 91.609375 C 78.449219 92.3125 78.664062 93.0625 78.738281 93.820312 C 78.953125 96.089844 77.882812 98.414062 75.722656 99.660156 C 74.464844 100.382812 73.0625 100.617188 71.734375 100.40625 C 71.144531 100.3125 70.570312 100.132812 70.03125 99.871094 C 69.074219 99.410156 68.230469 98.6875 67.601562 97.734375 C 67.542969 97.640625 67.480469 97.542969 67.425781 97.445312 C 65.742188 94.542969 66.742188 90.835938 69.648438 89.152344 C 70.605469 88.601562 71.648438 88.339844 72.679688 88.339844 C 73.363281 88.339844 74.042969 88.457031 74.6875 88.679688 C 75.929688 89.113281 77.039062 89.945312 77.796875 91.121094 C 77.902344 91.28125 77.996094 91.445312 78.082031 91.609375 Z M 122.941406 69.355469 C 122.875 70.300781 122.585938 71.222656 122.101562 72.039062 C 121.730469 72.660156 121.253906 73.207031 120.695312 73.660156 C 120.453125 73.855469 120.191406 74.035156 119.914062 74.195312 C 118.957031 74.746094 117.917969 75.003906 116.886719 75.003906 C 115.949219 75.003906 115.023438 74.789062 114.1875 74.375 C 113.207031 73.890625 112.378906 73.152344 111.785156 72.25 C 111.726562 72.15625 111.667969 72.0625 111.613281 71.96875 C 111.058594 71.007812 110.796875 69.960938 110.796875 68.929688 C 110.800781 67.871094 111.078125 66.824219 111.605469 65.90625 C 112.140625 64.980469 112.914062 64.207031 113.839844 63.671875 C 113.878906 63.648438 113.917969 63.625 113.953125 63.605469 C 115.617188 62.699219 117.523438 62.644531 119.160156 63.308594 C 120.179688 63.722656 121.058594 64.402344 121.714844 65.257812 C 121.867188 65.460938 122.011719 65.675781 122.140625 65.902344 C 122.632812 66.753906 122.894531 67.679688 122.945312 68.601562 C 122.953125 68.710938 122.957031 68.824219 122.957031 68.9375 C 122.953125 69.078125 122.949219 69.21875 122.941406 69.355469 Z M 277.972656 179.664062 C 274.679688 177.296875 274.597656 172.402344 277.847656 169.917969 C 280.640625 167.808594 284.5625 168.453125 286.527344 171.28125 C 288.4375 174.027344 287.75 177.792969 285.03125 179.703125 C 282.914062 181.191406 280.074219 181.175781 277.972656 179.664062 Z M 213.257812 111.777344 C 213.257812 111.941406 213.257812 112.101562 213.261719 112.261719 C 213.257812 112.101562 213.257812 111.941406 213.257812 111.777344 Z M 213.261719 112.261719 C 213.265625 112.421875 213.273438 112.582031 213.28125 112.738281 C 213.273438 112.582031 213.265625 112.421875 213.261719 112.261719 Z M 213.28125 112.742188 C 213.289062 112.902344 213.296875 113.058594 213.3125 113.21875 C 213.296875 113.058594 213.289062 112.902344 213.28125 112.742188 Z M 213.28125 112.742188 " clip-rule="evenodd"/></clipPath><linearGradient x1="190.553631" gradientTransform="matrix(0.0272908, 0, 0, 0.0272504, 53.367232, 37.499999)" y1="-138.911113" x2="6738.116044" gradientUnits="userSpaceOnUse" y2="8852.944163" id="0cf987e517"><stop stop-opacity="1" stop-color="rgb(18.798828%, 73.699951%, 92.89856%)" offset="0"/><stop stop-opacity="1" stop-color="rgb(18.798828%, 73.699951%, 92.89856%)" offset="0.125"/><stop stop-opacity="1" stop-color="rgb(18.798828%, 73.699951%, 92.89856%)" offset="0.1875"/><stop stop-opacity="1" stop-color="rgb(18.798828%, 73.699951%, 92.89856%)" offset="0.21875"/><stop stop-opacity="1" stop-color="rgb(18.701172%, 73.469543%, 92.76886%)" offset="0.222656"/><stop stop-opacity="1" stop-color="rgb(18.605042%, 73.239136%, 92.640686%)" offset="0.226562"/><stop stop-opacity="1" stop-color="rgb(18.475342%, 72.930908%, 92.466736%)" offset="0.230469"/><stop stop-opacity="1" stop-color="rgb(18.345642%, 72.622681%, 92.294312%)" offset="0.234375"/><stop stop-opacity="1" stop-color="rgb(18.215942%, 72.312927%, 92.120361%)" offset="0.238281"/><stop stop-opacity="1" stop-color="rgb(18.086243%, 72.0047%, 91.947937%)" offset="0.242187"/><stop stop-opacity="1" stop-color="rgb(17.956543%, 71.696472%, 91.773987%)" offset="0.246094"/><stop stop-opacity="1" stop-color="rgb(17.826843%, 71.388245%, 91.601562%)" offset="0.25"/><stop stop-opacity="1" stop-color="rgb(17.697144%, 71.080017%, 91.427612%)" offset="0.253906"/><stop stop-opacity="1" stop-color="rgb(17.567444%, 70.77179%, 91.255188%)" offset="0.257812"/><stop stop-opacity="1" stop-color="rgb(17.437744%, 70.462036%, 91.081238%)" offset="0.261719"/><stop stop-opacity="1" stop-color="rgb(17.308044%, 70.153809%, 90.908813%)" offset="0.265625"/><stop stop-opacity="1" stop-color="rgb(17.178345%, 69.845581%, 90.734863%)" offset="0.269531"/><stop stop-opacity="1" stop-color="rgb(17.048645%, 69.537354%, 90.562439%)" offset="0.273438"/><stop stop-opacity="1" stop-color="rgb(16.918945%, 69.229126%, 90.388489%)" offset="0.277344"/><stop stop-opacity="1" stop-color="rgb(16.789246%, 68.920898%, 90.216064%)" offset="0.28125"/><stop stop-opacity="1" stop-color="rgb(16.659546%, 68.611145%, 90.042114%)" offset="0.285156"/><stop stop-opacity="1" stop-color="rgb(16.529846%, 68.302917%, 89.86969%)" offset="0.289062"/><stop stop-opacity="1" stop-color="rgb(16.400146%, 67.99469%, 89.69574%)" offset="0.292969"/><stop stop-opacity="1" stop-color="rgb(16.270447%, 67.686462%, 89.523315%)" offset="0.296875"/><stop stop-opacity="1" stop-color="rgb(16.140747%, 67.378235%, 89.349365%)" offset="0.300781"/><stop stop-opacity="1" stop-color="rgb(16.011047%, 67.070007%, 89.176941%)" offset="0.304688"/><stop stop-opacity="1" stop-color="rgb(15.881348%, 66.760254%, 89.002991%)" offset="0.308594"/><stop stop-opacity="1" stop-color="rgb(15.751648%, 66.452026%, 88.830566%)" offset="0.3125"/><stop stop-opacity="1" stop-color="rgb(15.621948%, 66.143799%, 88.656616%)" offset="0.316406"/><stop stop-opacity="1" stop-color="rgb(15.492249%, 65.835571%, 88.484192%)" offset="0.320312"/><stop stop-opacity="1" stop-color="rgb(15.362549%, 65.527344%, 88.310242%)" offset="0.324219"/><stop stop-opacity="1" stop-color="rgb(15.232849%, 65.219116%, 88.137817%)" offset="0.328125"/><stop stop-opacity="1" stop-color="rgb(15.103149%, 64.909363%, 87.963867%)" offset="0.332031"/><stop stop-opacity="1" stop-color="rgb(14.97345%, 64.601135%, 87.791443%)" offset="0.335938"/><stop stop-opacity="1" stop-color="rgb(14.84375%, 64.292908%, 87.617493%)" offset="0.339844"/><stop stop-opacity="1" stop-color="rgb(14.71405%, 63.98468%, 87.445068%)" offset="0.34375"/><stop stop-opacity="1" stop-color="rgb(14.584351%, 63.676453%, 87.271118%)" offset="0.347656"/><stop stop-opacity="1" stop-color="rgb(14.454651%, 63.368225%, 87.098694%)" offset="0.351562"/><stop stop-opacity="1" stop-color="rgb(14.324951%, 63.059998%, 86.924744%)" offset="0.355469"/><stop stop-opacity="1" stop-color="rgb(14.195251%, 62.75177%, 86.752319%)" offset="0.359375"/><stop stop-opacity="1" stop-color="rgb(14.065552%, 62.442017%, 86.578369%)" offset="0.363281"/><stop stop-opacity="1" stop-color="rgb(13.935852%, 62.133789%, 86.404419%)" offset="0.367187"/><stop stop-opacity="1" stop-color="rgb(13.804626%, 61.825562%, 86.230469%)" offset="0.371094"/><stop stop-opacity="1" stop-color="rgb(13.674927%, 61.517334%, 86.058044%)" offset="0.375"/><stop stop-opacity="1" stop-color="rgb(13.545227%, 61.209106%, 85.884094%)" offset="0.378906"/><stop stop-opacity="1" stop-color="rgb(13.415527%, 60.900879%, 85.71167%)" offset="0.382812"/><stop stop-opacity="1" stop-color="rgb(13.285828%, 60.591125%, 85.53772%)" offset="0.386719"/><stop stop-opacity="1" stop-color="rgb(13.156128%, 60.282898%, 85.365295%)" offset="0.390625"/><stop stop-opacity="1" stop-color="rgb(13.026428%, 59.97467%, 85.191345%)" offset="0.394531"/><stop stop-opacity="1" stop-color="rgb(12.896729%, 59.666443%, 85.018921%)" offset="0.398437"/><stop stop-opacity="1" stop-color="rgb(12.767029%, 59.358215%, 84.844971%)" offset="0.402344"/><stop stop-opacity="1" stop-color="rgb(12.637329%, 59.049988%, 84.672546%)" offset="0.40625"/><stop stop-opacity="1" stop-color="rgb(12.507629%, 58.740234%, 84.498596%)" offset="0.410156"/><stop stop-opacity="1" stop-color="rgb(12.37793%, 58.432007%, 84.326172%)" offset="0.414063"/><stop stop-opacity="1" stop-color="rgb(12.24823%, 58.123779%, 84.152222%)" offset="0.417969"/><stop stop-opacity="1" stop-color="rgb(12.11853%, 57.815552%, 83.979797%)" offset="0.421875"/><stop stop-opacity="1" stop-color="rgb(11.988831%, 57.507324%, 83.805847%)" offset="0.425781"/><stop stop-opacity="1" stop-color="rgb(11.859131%, 57.199097%, 83.633423%)" offset="0.429688"/><stop stop-opacity="1" stop-color="rgb(11.729431%, 56.889343%, 83.459473%)" offset="0.433594"/><stop stop-opacity="1" stop-color="rgb(11.599731%, 56.581116%, 83.287048%)" offset="0.4375"/><stop stop-opacity="1" stop-color="rgb(11.470032%, 56.272888%, 83.113098%)" offset="0.441406"/><stop stop-opacity="1" stop-color="rgb(11.340332%, 55.964661%, 82.940674%)" offset="0.445312"/><stop stop-opacity="1" stop-color="rgb(11.210632%, 55.656433%, 82.766724%)" offset="0.449219"/><stop stop-opacity="1" stop-color="rgb(11.080933%, 55.348206%, 82.594299%)" offset="0.453125"/><stop stop-opacity="1" stop-color="rgb(10.951233%, 55.038452%, 82.420349%)" offset="0.457031"/><stop stop-opacity="1" stop-color="rgb(10.821533%, 54.730225%, 82.247925%)" offset="0.460938"/><stop stop-opacity="1" stop-color="rgb(10.691833%, 54.421997%, 82.073975%)" offset="0.464844"/><stop stop-opacity="1" stop-color="rgb(10.562134%, 54.11377%, 81.90155%)" offset="0.46875"/><stop stop-opacity="1" stop-color="rgb(10.432434%, 53.805542%, 81.7276%)" offset="0.472656"/><stop stop-opacity="1" stop-color="rgb(10.302734%, 53.497314%, 81.555176%)" offset="0.476562"/><stop stop-opacity="1" stop-color="rgb(10.173035%, 53.187561%, 81.381226%)" offset="0.480469"/><stop stop-opacity="1" stop-color="rgb(10.043335%, 52.879333%, 81.208801%)" offset="0.484375"/><stop stop-opacity="1" stop-color="rgb(9.913635%, 52.571106%, 81.034851%)" offset="0.488281"/><stop stop-opacity="1" stop-color="rgb(9.783936%, 52.262878%, 80.862427%)" offset="0.492187"/><stop stop-opacity="1" stop-color="rgb(9.654236%, 51.954651%, 80.688477%)" offset="0.496094"/><stop stop-opacity="1" stop-color="rgb(9.524536%, 51.646423%, 80.516052%)" offset="0.5"/><stop stop-opacity="1" stop-color="rgb(9.394836%, 51.33667%, 80.342102%)" offset="0.503906"/><stop stop-opacity="1" stop-color="rgb(9.265137%, 51.028442%, 80.169678%)" offset="0.507812"/><stop stop-opacity="1" stop-color="rgb(9.135437%, 50.720215%, 79.995728%)" offset="0.511719"/><stop stop-opacity="1" stop-color="rgb(9.005737%, 50.411987%, 79.823303%)" offset="0.515625"/><stop stop-opacity="1" stop-color="rgb(8.876038%, 50.10376%, 79.649353%)" offset="0.519531"/><stop stop-opacity="1" stop-color="rgb(8.746338%, 49.795532%, 79.476929%)" offset="0.523438"/><stop stop-opacity="1" stop-color="rgb(8.615112%, 49.485779%, 79.302979%)" offset="0.527344"/><stop stop-opacity="1" stop-color="rgb(8.485413%, 49.177551%, 79.130554%)" offset="0.53125"/><stop stop-opacity="1" stop-color="rgb(8.355713%, 48.869324%, 78.956604%)" offset="0.535156"/><stop stop-opacity="1" stop-color="rgb(8.226013%, 48.561096%, 78.78418%)" offset="0.539062"/><stop stop-opacity="1" stop-color="rgb(8.096313%, 48.252869%, 78.610229%)" offset="0.542969"/><stop stop-opacity="1" stop-color="rgb(7.966614%, 47.944641%, 78.437805%)" offset="0.546875"/><stop stop-opacity="1" stop-color="rgb(7.836914%, 47.634888%, 78.263855%)" offset="0.550781"/><stop stop-opacity="1" stop-color="rgb(7.707214%, 47.32666%, 78.091431%)" offset="0.554688"/><stop stop-opacity="1" stop-color="rgb(7.577515%, 47.018433%, 77.91748%)" offset="0.558594"/><stop stop-opacity="1" stop-color="rgb(7.447815%, 46.710205%, 77.745056%)" offset="0.5625"/><stop stop-opacity="1" stop-color="rgb(7.318115%, 46.401978%, 77.571106%)" offset="0.566406"/><stop stop-opacity="1" stop-color="rgb(7.188416%, 46.09375%, 77.398682%)" offset="0.570312"/><stop stop-opacity="1" stop-color="rgb(7.058716%, 45.783997%, 77.224731%)" offset="0.574219"/><stop stop-opacity="1" stop-color="rgb(6.929016%, 45.475769%, 77.050781%)" offset="0.578125"/><stop stop-opacity="1" stop-color="rgb(6.799316%, 45.167542%, 76.876831%)" offset="0.582031"/><stop stop-opacity="1" stop-color="rgb(6.669617%, 44.859314%, 76.704407%)" offset="0.585938"/><stop stop-opacity="1" stop-color="rgb(6.539917%, 44.551086%, 76.530457%)" offset="0.589844"/><stop stop-opacity="1" stop-color="rgb(6.410217%, 44.242859%, 76.358032%)" offset="0.59375"/><stop stop-opacity="1" stop-color="rgb(6.280518%, 43.933105%, 76.184082%)" offset="0.597656"/><stop stop-opacity="1" stop-color="rgb(6.150818%, 43.624878%, 76.011658%)" offset="0.601563"/><stop stop-opacity="1" stop-color="rgb(6.021118%, 43.31665%, 75.837708%)" offset="0.605469"/><stop stop-opacity="1" stop-color="rgb(5.891418%, 43.008423%, 75.665283%)" offset="0.609375"/><stop stop-opacity="1" stop-color="rgb(5.761719%, 42.700195%, 75.491333%)" offset="0.613281"/><stop stop-opacity="1" stop-color="rgb(5.632019%, 42.391968%, 75.318909%)" offset="0.617188"/><stop stop-opacity="1" stop-color="rgb(5.502319%, 42.082214%, 75.144958%)" offset="0.621094"/><stop stop-opacity="1" stop-color="rgb(5.37262%, 41.773987%, 74.972534%)" offset="0.625"/><stop stop-opacity="1" stop-color="rgb(5.24292%, 41.465759%, 74.798584%)" offset="0.628906"/><stop stop-opacity="1" stop-color="rgb(5.11322%, 41.157532%, 74.62616%)" offset="0.632812"/><stop stop-opacity="1" stop-color="rgb(4.983521%, 40.849304%, 74.452209%)" offset="0.636719"/><stop stop-opacity="1" stop-color="rgb(4.853821%, 40.541077%, 74.279785%)" offset="0.640625"/><stop stop-opacity="1" stop-color="rgb(4.724121%, 40.232849%, 74.105835%)" offset="0.644531"/><stop stop-opacity="1" stop-color="rgb(4.594421%, 39.924622%, 73.933411%)" offset="0.648438"/><stop stop-opacity="1" stop-color="rgb(4.464722%, 39.614868%, 73.75946%)" offset="0.652344"/><stop stop-opacity="1" stop-color="rgb(4.335022%, 39.306641%, 73.587036%)" offset="0.65625"/><stop stop-opacity="1" stop-color="rgb(4.205322%, 38.998413%, 73.413086%)" offset="0.660156"/><stop stop-opacity="1" stop-color="rgb(4.075623%, 38.690186%, 73.240662%)" offset="0.664062"/><stop stop-opacity="1" stop-color="rgb(3.945923%, 38.381958%, 73.066711%)" offset="0.667969"/><stop stop-opacity="1" stop-color="rgb(3.816223%, 38.07373%, 72.894287%)" offset="0.671875"/><stop stop-opacity="1" stop-color="rgb(3.684998%, 37.763977%, 72.720337%)" offset="0.675781"/><stop stop-opacity="1" stop-color="rgb(3.555298%, 37.45575%, 72.547913%)" offset="0.679688"/><stop stop-opacity="1" stop-color="rgb(3.425598%, 37.147522%, 72.373962%)" offset="0.683594"/><stop stop-opacity="1" stop-color="rgb(3.295898%, 36.839294%, 72.201538%)" offset="0.6875"/><stop stop-opacity="1" stop-color="rgb(3.166199%, 36.531067%, 72.027588%)" offset="0.691406"/><stop stop-opacity="1" stop-color="rgb(3.036499%, 36.222839%, 71.855164%)" offset="0.695313"/><stop stop-opacity="1" stop-color="rgb(2.906799%, 35.913086%, 71.681213%)" offset="0.699219"/><stop stop-opacity="1" stop-color="rgb(2.7771%, 35.604858%, 71.508789%)" offset="0.703125"/><stop stop-opacity="1" stop-color="rgb(2.6474%, 35.296631%, 71.334839%)" offset="0.707031"/><stop stop-opacity="1" stop-color="rgb(2.5177%, 34.988403%, 71.162415%)" offset="0.710938"/><stop stop-opacity="1" stop-color="rgb(2.388%, 34.680176%, 70.988464%)" offset="0.714844"/><stop stop-opacity="1" stop-color="rgb(2.258301%, 34.371948%, 70.81604%)" offset="0.71875"/><stop stop-opacity="1" stop-color="rgb(2.128601%, 34.062195%, 70.64209%)" offset="0.722656"/><stop stop-opacity="1" stop-color="rgb(1.998901%, 33.753967%, 70.469666%)" offset="0.726563"/><stop stop-opacity="1" stop-color="rgb(1.869202%, 33.44574%, 70.295715%)" offset="0.730469"/><stop stop-opacity="1" stop-color="rgb(1.739502%, 33.137512%, 70.123291%)" offset="0.734375"/><stop stop-opacity="1" stop-color="rgb(1.609802%, 32.829285%, 69.949341%)" offset="0.738281"/><stop stop-opacity="1" stop-color="rgb(1.480103%, 32.521057%, 69.776917%)" offset="0.742188"/><stop stop-opacity="1" stop-color="rgb(1.350403%, 32.211304%, 69.602966%)" offset="0.746094"/><stop stop-opacity="1" stop-color="rgb(1.220703%, 31.903076%, 69.430542%)" offset="0.75"/><stop stop-opacity="1" stop-color="rgb(1.091003%, 31.594849%, 69.256592%)" offset="0.753906"/><stop stop-opacity="1" stop-color="rgb(0.961304%, 31.286621%, 69.084167%)" offset="0.757812"/><stop stop-opacity="1" stop-color="rgb(0.831604%, 30.978394%, 68.910217%)" offset="0.761719"/><stop stop-opacity="1" stop-color="rgb(0.701904%, 30.670166%, 68.737793%)" offset="0.765625"/><stop stop-opacity="1" stop-color="rgb(0.572205%, 30.360413%, 68.563843%)" offset="0.769531"/><stop stop-opacity="1" stop-color="rgb(0.442505%, 30.052185%, 68.391418%)" offset="0.773438"/><stop stop-opacity="1" stop-color="rgb(0.312805%, 29.743958%, 68.217468%)" offset="0.777344"/><stop stop-opacity="1" stop-color="rgb(0.183105%, 29.43573%, 68.045044%)" offset="0.78125"/><stop stop-opacity="1" stop-color="rgb(0.0915527%, 29.217529%, 67.921448%)" offset="0.785156"/><stop stop-opacity="1" stop-color="rgb(0%, 28.999329%, 67.799377%)" offset="0.789063"/><stop stop-opacity="1" stop-color="rgb(0%, 28.999329%, 67.799377%)" offset="0.796875"/><stop stop-opacity="1" stop-color="rgb(0%, 28.999329%, 67.799377%)" offset="0.8125"/><stop stop-opacity="1" stop-color="rgb(0%, 28.999329%, 67.799377%)" offset="0.875"/><stop stop-opacity="1" stop-color="rgb(0%, 28.999329%, 67.799377%)" offset="1"/></linearGradient></defs><g clip-path="url(#da4bc7a447)"><g clip-path="url(#4838b39cd9)"><path fill="url(#0cf987e517)" d="M 53.363281 37.5 L 53.363281 232.5 L 300.863281 232.5 L 300.863281 37.5 Z M 53.363281 37.5 " fill-rule="nonzero"/></g></g><g fill="#004aad" fill-opacity="1"><g transform="translate(64.820442, 309.725354)"><g><path d="M 21.734375 -11.171875 L 21.734375 -18.078125 C 21.734375 -19.191406 21.097656 -19.75 19.828125 -19.75 L 12.53125 -19.75 C 8.789062 -19.75 6.144531 -20.570312 4.59375 -22.21875 C 3.050781 -23.863281 2.28125 -26.234375 2.28125 -29.328125 L 2.28125 -39.359375 C 2.28125 -45.640625 5.976562 -48.78125 13.375 -48.78125 L 23.78125 -48.78125 C 31.175781 -48.78125 34.875 -45.640625 34.875 -39.359375 L 34.875 -33.515625 L 21.578125 -33.515625 L 21.578125 -37.609375 C 21.578125 -38.722656 20.945312 -39.28125 19.6875 -39.28125 L 17.46875 -39.28125 C 16.207031 -39.28125 15.578125 -38.722656 15.578125 -37.609375 L 15.578125 -30.390625 C 15.578125 -29.273438 16.207031 -28.71875 17.46875 -28.71875 L 24.625 -28.71875 C 28.363281 -28.71875 31.03125 -27.929688 32.625 -26.359375 C 34.226562 -24.796875 35.03125 -22.492188 35.03125 -19.453125 L 35.03125 -9.421875 C 35.03125 -3.140625 31.332031 0 23.9375 0 L 13.59375 0 C 6.15625 0 2.4375 -3.140625 2.4375 -9.421875 L 2.4375 -15.265625 L 15.734375 -15.265625 L 15.734375 -11.171875 C 15.734375 -10.054688 16.363281 -9.5 17.625 -9.5 L 19.828125 -9.5 C 21.097656 -9.5 21.734375 -10.054688 21.734375 -11.171875 Z M 21.734375 -11.171875 "/></g></g></g><g fill="#004aad" fill-opacity="1"><g transform="translate(102.127688, 309.725354)"><g><path d="M 22.265625 -28.421875 L 17.46875 -28.421875 L 17.46875 -11.171875 C 17.46875 -10.054688 18.101562 -9.5 19.375 -9.5 L 22.1875 -9.5 L 22.1875 0 L 15.734375 0 C 8.285156 0 4.5625 -3.140625 4.5625 -9.421875 L 4.5625 -28.421875 L 0.375 -28.421875 L 0.375 -37.921875 L 4.5625 -37.921875 L 4.5625 -45.359375 L 17.46875 -45.359375 L 17.46875 -37.921875 L 22.265625 -37.921875 Z M 22.265625 -28.421875 "/></g></g></g><g fill="#004aad" fill-opacity="1"><g transform="translate(125.150286, 309.725354)"><g><path d="M 13.453125 -37.921875 L 23.09375 -37.921875 C 26.945312 -37.921875 29.707031 -37.109375 31.375 -35.484375 C 33.050781 -33.859375 33.890625 -31.53125 33.890625 -28.5 L 33.890625 -9.421875 C 33.890625 -6.378906 33.050781 -4.046875 31.375 -2.421875 C 29.707031 -0.804688 26.945312 0 23.09375 0 L 13.453125 0 C 9.597656 0 6.832031 -0.804688 5.15625 -2.421875 C 3.488281 -4.046875 2.65625 -6.378906 2.65625 -9.421875 L 2.65625 -28.5 C 2.65625 -31.53125 3.488281 -33.859375 5.15625 -35.484375 C 6.832031 -37.109375 9.597656 -37.921875 13.453125 -37.921875 Z M 21.203125 -10.640625 L 21.203125 -27.28125 C 21.203125 -28.394531 20.566406 -28.953125 19.296875 -28.953125 L 17.25 -28.953125 C 15.976562 -28.953125 15.34375 -28.394531 15.34375 -27.28125 L 15.34375 -10.640625 C 15.34375 -9.523438 15.976562 -8.96875 17.25 -8.96875 L 19.296875 -8.96875 C 20.566406 -8.96875 21.203125 -9.523438 21.203125 -10.640625 Z M 21.203125 -10.640625 "/></g></g></g><g fill="#004aad" fill-opacity="1"><g transform="translate(161.697708, 309.725354)"><g><path d="M 32.75 -23.25 L 20.28125 -23.25 L 20.28125 -26.75 C 20.28125 -27.863281 19.648438 -28.421875 18.390625 -28.421875 L 17.09375 -28.421875 C 15.832031 -28.421875 15.203125 -27.863281 15.203125 -26.75 L 15.203125 -11.171875 C 15.203125 -10.054688 15.832031 -9.5 17.09375 -9.5 L 18.390625 -9.5 C 19.648438 -9.5 20.28125 -10.054688 20.28125 -11.171875 L 20.28125 -14.671875 L 32.75 -14.671875 L 32.75 -9.421875 C 32.75 -3.140625 29.023438 0 21.578125 0 L 13.453125 0 C 6.003906 0 2.28125 -3.140625 2.28125 -9.421875 L 2.28125 -28.5 C 2.28125 -34.78125 6.003906 -37.921875 13.453125 -37.921875 L 21.578125 -37.921875 C 29.023438 -37.921875 32.75 -34.78125 32.75 -28.5 Z M 32.75 -23.25 "/></g></g></g><g fill="#004aad" fill-opacity="1"><g transform="translate(195.965656, 309.725354)"><g><path d="M 15.953125 0 L 3.046875 0 L 3.046875 -50.828125 L 15.953125 -50.828125 L 15.953125 -20.671875 L 23.09375 -37.921875 L 36.46875 -37.921875 L 28.34375 -19.21875 L 36.46875 0 L 23.015625 0 L 15.953125 -17.703125 Z M 15.953125 0 "/></g></g></g><g fill="#004aad" fill-opacity="1"><g transform="translate(232.057181, 309.725354)"><g><path d="M 2.8125 -41.71875 L 2.8125 -50.828125 L 16.1875 -50.828125 L 16.1875 -41.71875 Z M 15.953125 0 L 3.046875 0 L 3.046875 -37.921875 L 15.953125 -37.921875 Z M 15.953125 0 "/></g></g></g><g fill="#004aad" fill-opacity="1"><g transform="translate(251.052716, 309.725354)"><g><path d="M 23.484375 -41.71875 L 19.453125 -41.71875 C 18.179688 -41.71875 17.546875 -41.160156 17.546875 -40.046875 L 17.546875 -37.921875 L 23.484375 -37.921875 L 23.484375 -28.421875 L 17.546875 -28.421875 L 17.546875 0 L 4.640625 0 L 4.640625 -28.421875 L 0.765625 -28.421875 L 0.765625 -37.921875 L 4.640625 -37.921875 L 4.640625 -41.40625 C 4.640625 -47.6875 8.363281 -50.828125 15.8125 -50.828125 L 23.484375 -50.828125 Z M 23.484375 -41.71875 "/></g></g></g><g fill="#004aad" fill-opacity="1"><g transform="translate(274.91111, 309.725354)"><g><path d="M 11.390625 9.796875 L 5.015625 9.796875 L 5.015625 0.453125 L 10.640625 0.453125 C 11.859375 0.453125 12.820312 0.25 13.53125 -0.15625 C 14.238281 -0.5625 14.84375 -1.523438 15.34375 -3.046875 L 10.40625 -3.046875 L 0 -37.921875 L 13.53125 -37.921875 L 18.15625 -14.8125 L 22.265625 -37.921875 L 35.25 -37.921875 L 25.765625 -0.765625 C 24.691406 2.734375 23.066406 5.367188 20.890625 7.140625 C 18.710938 8.910156 15.546875 9.796875 11.390625 9.796875 Z M 11.390625 9.796875 "/></g></g></g></svg>