<svg xmlns="http://www.w3.org/2000/svg" xmlns:xlink="http://www.w3.org/1999/xlink" width="500" zoomAndPan="magnify" viewBox="0 0 375 374.999991" height="500" preserveAspectRatio="xMidYMid meet" version="1.0"><defs><clipPath id="faf2f9f23e"><path d="M 25.480469 69.140625 L 337.480469 69.140625 L 337.480469 315.140625 L 25.480469 315.140625 Z M 25.480469 69.140625 " clip-rule="nonzero"/></clipPath><clipPath id="2c02faa968"><path d="M 227.644531 159.070312 C 232.449219 159.976562 237.175781 161.121094 241.796875 162.492188 C 241.632812 164.246094 242.082031 165.925781 242.964844 167.316406 C 242.921875 167.25 242.882812 167.183594 242.84375 167.113281 C 242.828125 167.089844 242.816406 167.066406 242.800781 167.042969 C 242.285156 166.148438 241.96875 165.191406 241.835938 164.230469 C 241.832031 164.195312 241.828125 164.160156 241.824219 164.125 C 241.785156 163.820312 241.769531 163.515625 241.769531 163.214844 C 241.773438 160.570312 243.148438 158 245.597656 156.574219 C 246.800781 155.886719 248.117188 155.554688 249.414062 155.554688 C 252.066406 155.554688 254.648438 156.933594 256.070312 159.390625 C 256.546875 160.214844 256.851562 161.089844 256.996094 161.972656 C 257.0625 162.382812 257.097656 162.789062 257.097656 163.199219 C 257.097656 164.699219 256.65625 166.171875 255.828125 167.429688 C 261.015625 169.554688 266.058594 171.980469 270.90625 174.691406 C 270.441406 175.566406 269.921875 176.414062 269.351562 177.226562 C 269.363281 177.210938 269.375 177.191406 269.386719 177.175781 C 274.691406 169.59375 275.410156 159.308594 270.425781 150.882812 C 267.476562 145.894531 263.058594 142.335938 258.039062 140.445312 C 257.578125 140.292969 257.113281 140.15625 256.644531 140.035156 C 254.394531 139.367188 252.050781 139.023438 249.683594 139.023438 C 246.421875 139.023438 243.125 139.683594 239.992188 141.050781 C 239.953125 141.066406 239.914062 141.085938 239.875 141.101562 L 212.609375 125.375 L 184.683594 141.484375 L 161.519531 128.125 L 210.945312 99.601562 L 291.15625 145.859375 L 291.15625 174.964844 L 210.914062 221.28125 L 130.6875 174.984375 C 130.683594 174.988281 130.679688 174.988281 130.679688 174.988281 L 74.144531 142.375 C 74.457031 137.621094 73.320312 132.90625 70.925781 128.773438 C 66.964844 121.929688 60.101562 117.542969 52.394531 116.726562 C 41.597656 115.582031 31.289062 121.777344 27.242188 131.851562 C 24.554688 138.550781 24.859375 146.371094 28.75 153.101562 C 30.015625 155.292969 31.578125 157.21875 33.359375 158.847656 C 33.359375 158.847656 33.359375 158.851562 33.359375 158.851562 C 40.121094 165.066406 49.835938 166.9375 58.398438 163.710938 L 104.332031 190.226562 L 104.332031 193.304688 L 104.351562 193.34375 L 104.351562 253.625 L 210.945312 315.140625 L 300.820312 263.300781 C 304.804688 265.621094 309.414062 266.761719 313.992188 266.59375 C 317.886719 266.449219 321.769531 265.375 325.292969 263.339844 C 336.9375 256.640625 340.941406 241.742188 334.203125 230.105469 C 328.113281 219.542969 315.285156 215.28125 304.25 219.601562 C 295.855469 222.882812 289.875 230.5625 288.898438 239.675781 L 210.90625 284.675781 L 143.011719 245.523438 C 143.015625 245.527344 143.027344 245.527344 143.035156 245.527344 L 130.699219 238.425781 L 130.699219 205.429688 L 197.753906 244.109375 L 210.957031 251.722656 L 302.90625 198.667969 L 317.503906 190.246094 L 317.503906 130.652344 C 294.542969 117.414062 271.589844 104.160156 248.625 90.898438 C 248.621094 90.898438 248.621094 90.898438 248.617188 90.902344 C 236.046875 83.648438 223.476562 76.386719 210.90625 69.140625 L 135.101562 112.882812 L 129.878906 109.867188 C 130.078125 105.25 128.976562 100.679688 126.632812 96.628906 C 119.894531 84.972656 105.007812 81.011719 93.371094 87.722656 C 81.71875 94.449219 77.722656 109.308594 84.457031 120.957031 C 90.515625 131.4375 103.324219 135.847656 114.5 131.425781 L 165.871094 161.054688 C 165.867188 161.058594 165.859375 161.058594 165.855469 161.0625 L 184.722656 171.929688 L 212.691406 155.816406 C 217.679688 158.6875 222.289062 161.847656 227.132812 164.878906 C 227.125 164.808594 227.121094 164.734375 227.113281 164.660156 C 228.042969 176.835938 238.222656 186.429688 250.644531 186.429688 C 258.261719 186.429688 265.035156 182.820312 269.351562 177.226562 C 269.921875 176.414062 270.441406 175.566406 270.90625 174.691406 C 266.058594 171.980469 261.015625 169.554688 255.828125 167.429688 C 255.816406 167.449219 255.804688 167.46875 255.789062 167.488281 C 255.519531 167.890625 255.207031 168.273438 254.855469 168.621094 C 254.851562 168.621094 254.851562 168.625 254.847656 168.625 C 254.570312 168.902344 254.269531 169.160156 253.945312 169.398438 C 253.945312 169.398438 253.941406 169.398438 253.941406 169.398438 C 253.566406 169.671875 253.171875 169.910156 252.757812 170.109375 C 252.117188 170.417969 251.433594 170.640625 250.730469 170.761719 C 250.714844 170.761719 250.703125 170.765625 250.6875 170.769531 C 250.476562 170.804688 250.265625 170.828125 250.050781 170.847656 C 250.046875 170.847656 250.042969 170.847656 250.042969 170.847656 C 249.839844 170.863281 249.636719 170.871094 249.433594 170.871094 C 249.308594 170.871094 249.183594 170.867188 249.058594 170.863281 C 247.925781 170.808594 246.871094 170.511719 245.929688 170.027344 C 244.710938 169.398438 243.691406 168.457031 242.96875 167.316406 C 242.96875 167.316406 242.964844 167.316406 242.964844 167.3125 C 242.082031 165.925781 241.632812 164.246094 241.796875 162.488281 C 237.175781 161.121094 232.453125 159.976562 227.644531 159.070312 Z M 56.636719 137.402344 C 57.101562 138.289062 57.375 139.238281 57.464844 140.191406 C 57.738281 143.054688 56.390625 145.984375 53.664062 147.558594 C 52.078125 148.472656 50.308594 148.761719 48.636719 148.5 C 47.890625 148.382812 47.167969 148.15625 46.488281 147.824219 C 45.285156 147.242188 44.21875 146.332031 43.429688 145.128906 C 43.351562 145.011719 43.273438 144.890625 43.203125 144.765625 C 41.085938 141.101562 42.34375 136.425781 46.007812 134.300781 C 47.214844 133.609375 48.527344 133.277344 49.824219 133.277344 C 50.691406 133.277344 51.546875 133.421875 52.359375 133.707031 C 53.925781 134.25 55.324219 135.300781 56.28125 136.785156 C 56.410156 136.988281 56.527344 137.191406 56.636719 137.402344 Z M 113.1875 109.328125 C 113.105469 110.519531 112.742188 111.679688 112.128906 112.714844 C 111.664062 113.496094 111.0625 114.1875 110.359375 114.757812 C 110.054688 115.003906 109.726562 115.230469 109.375 115.433594 C 108.167969 116.125 106.855469 116.457031 105.558594 116.457031 C 104.378906 116.457031 103.210938 116.183594 102.152344 115.660156 C 100.921875 115.050781 99.875 114.121094 99.125 112.976562 C 99.050781 112.863281 98.980469 112.742188 98.910156 112.621094 C 98.210938 111.414062 97.878906 110.09375 97.882812 108.789062 C 97.882812 107.453125 98.238281 106.136719 98.902344 104.976562 C 99.574219 103.808594 100.546875 102.832031 101.714844 102.15625 C 101.765625 102.128906 101.8125 102.101562 101.863281 102.074219 C 103.957031 100.929688 106.363281 100.863281 108.425781 101.699219 C 109.707031 102.21875 110.816406 103.078125 111.640625 104.160156 C 111.835938 104.414062 112.015625 104.683594 112.179688 104.96875 C 112.800781 106.046875 113.132812 107.210938 113.195312 108.375 C 113.203125 108.515625 113.207031 108.65625 113.207031 108.800781 C 113.207031 108.976562 113.199219 109.152344 113.1875 109.328125 Z M 308.628906 248.484375 C 304.476562 245.5 304.375 239.324219 308.46875 236.191406 C 311.992188 233.527344 316.933594 234.34375 319.414062 237.910156 C 321.820312 241.375 320.953125 246.128906 317.527344 248.535156 C 314.859375 250.414062 311.28125 250.390625 308.628906 248.484375 Z M 227.046875 162.847656 C 227.046875 163.050781 227.046875 163.253906 227.054688 163.453125 C 227.046875 163.253906 227.046875 163.050781 227.046875 162.847656 Z M 227.054688 163.457031 C 227.058594 163.65625 227.066406 163.859375 227.074219 164.058594 C 227.066406 163.859375 227.058594 163.65625 227.054688 163.457031 Z M 227.074219 164.0625 C 227.085938 164.261719 227.097656 164.460938 227.113281 164.660156 C 227.097656 164.460938 227.085938 164.261719 227.074219 164.0625 Z M 227.074219 164.0625 " clip-rule="evenodd"/></clipPath><linearGradient x1="190.599717" gradientTransform="matrix(0.0344039, 0, 0, 0.0343774, 25.481981, 69.140748)" y1="-138.847823" x2="6738.07042" gradientUnits="userSpaceOnUse" y2="8852.881506" id="ec95229440"><stop stop-opacity="1" stop-color="rgb(18.798828%, 73.699951%, 92.89856%)" offset="0"/><stop stop-opacity="1" stop-color="rgb(18.798828%, 73.699951%, 92.89856%)" offset="0.125"/><stop stop-opacity="1" stop-color="rgb(18.798828%, 73.699951%, 92.89856%)" offset="0.1875"/><stop stop-opacity="1" stop-color="rgb(18.798828%, 73.699951%, 92.89856%)" offset="0.21875"/><stop stop-opacity="1" stop-color="rgb(18.701172%, 73.469543%, 92.76886%)" offset="0.222656"/><stop stop-opacity="1" stop-color="rgb(18.605042%, 73.239136%, 92.640686%)" offset="0.226562"/><stop stop-opacity="1" stop-color="rgb(18.475342%, 72.930908%, 92.466736%)" offset="0.230469"/><stop stop-opacity="1" stop-color="rgb(18.345642%, 72.622681%, 92.294312%)" offset="0.234375"/><stop stop-opacity="1" stop-color="rgb(18.215942%, 72.312927%, 92.120361%)" offset="0.238281"/><stop stop-opacity="1" stop-color="rgb(18.086243%, 72.0047%, 91.947937%)" offset="0.242188"/><stop stop-opacity="1" stop-color="rgb(17.956543%, 71.696472%, 91.773987%)" offset="0.246094"/><stop stop-opacity="1" stop-color="rgb(17.826843%, 71.388245%, 91.601562%)" offset="0.25"/><stop stop-opacity="1" stop-color="rgb(17.697144%, 71.080017%, 91.427612%)" offset="0.253906"/><stop stop-opacity="1" stop-color="rgb(17.567444%, 70.77179%, 91.255188%)" offset="0.257812"/><stop stop-opacity="1" stop-color="rgb(17.437744%, 70.462036%, 91.081238%)" offset="0.261719"/><stop stop-opacity="1" stop-color="rgb(17.308044%, 70.153809%, 90.908813%)" offset="0.265625"/><stop stop-opacity="1" stop-color="rgb(17.178345%, 69.845581%, 90.734863%)" offset="0.269531"/><stop stop-opacity="1" stop-color="rgb(17.048645%, 69.537354%, 90.562439%)" offset="0.273438"/><stop stop-opacity="1" stop-color="rgb(16.918945%, 69.229126%, 90.388489%)" offset="0.277344"/><stop stop-opacity="1" stop-color="rgb(16.789246%, 68.920898%, 90.216064%)" offset="0.28125"/><stop stop-opacity="1" stop-color="rgb(16.659546%, 68.611145%, 90.042114%)" offset="0.285156"/><stop stop-opacity="1" stop-color="rgb(16.529846%, 68.302917%, 89.86969%)" offset="0.289062"/><stop stop-opacity="1" stop-color="rgb(16.400146%, 67.99469%, 89.69574%)" offset="0.292969"/><stop stop-opacity="1" stop-color="rgb(16.270447%, 67.686462%, 89.523315%)" offset="0.296875"/><stop stop-opacity="1" stop-color="rgb(16.140747%, 67.378235%, 89.349365%)" offset="0.300781"/><stop stop-opacity="1" stop-color="rgb(16.011047%, 67.070007%, 89.176941%)" offset="0.304688"/><stop stop-opacity="1" stop-color="rgb(15.881348%, 66.760254%, 89.002991%)" offset="0.308594"/><stop stop-opacity="1" stop-color="rgb(15.751648%, 66.452026%, 88.830566%)" offset="0.3125"/><stop stop-opacity="1" stop-color="rgb(15.621948%, 66.143799%, 88.656616%)" offset="0.316406"/><stop stop-opacity="1" stop-color="rgb(15.492249%, 65.835571%, 88.484192%)" offset="0.320312"/><stop stop-opacity="1" stop-color="rgb(15.362549%, 65.527344%, 88.310242%)" offset="0.324219"/><stop stop-opacity="1" stop-color="rgb(15.232849%, 65.219116%, 88.137817%)" offset="0.328125"/><stop stop-opacity="1" stop-color="rgb(15.103149%, 64.909363%, 87.963867%)" offset="0.332031"/><stop stop-opacity="1" stop-color="rgb(14.97345%, 64.601135%, 87.791443%)" offset="0.335938"/><stop stop-opacity="1" stop-color="rgb(14.84375%, 64.292908%, 87.617493%)" offset="0.339844"/><stop stop-opacity="1" stop-color="rgb(14.71405%, 63.98468%, 87.445068%)" offset="0.34375"/><stop stop-opacity="1" stop-color="rgb(14.584351%, 63.676453%, 87.271118%)" offset="0.347656"/><stop stop-opacity="1" stop-color="rgb(14.454651%, 63.368225%, 87.097168%)" offset="0.351563"/><stop stop-opacity="1" stop-color="rgb(14.324951%, 63.058472%, 86.923218%)" offset="0.355469"/><stop stop-opacity="1" stop-color="rgb(14.195251%, 62.750244%, 86.750793%)" offset="0.359375"/><stop stop-opacity="1" stop-color="rgb(14.064026%, 62.442017%, 86.576843%)" offset="0.363281"/><stop stop-opacity="1" stop-color="rgb(13.934326%, 62.133789%, 86.404419%)" offset="0.367188"/><stop stop-opacity="1" stop-color="rgb(13.804626%, 61.825562%, 86.230469%)" offset="0.371094"/><stop stop-opacity="1" stop-color="rgb(13.674927%, 61.517334%, 86.058044%)" offset="0.375"/><stop stop-opacity="1" stop-color="rgb(13.545227%, 61.207581%, 85.884094%)" offset="0.378906"/><stop stop-opacity="1" stop-color="rgb(13.415527%, 60.899353%, 85.71167%)" offset="0.382812"/><stop stop-opacity="1" stop-color="rgb(13.285828%, 60.591125%, 85.53772%)" offset="0.386719"/><stop stop-opacity="1" stop-color="rgb(13.156128%, 60.282898%, 85.365295%)" offset="0.390625"/><stop stop-opacity="1" stop-color="rgb(13.026428%, 59.97467%, 85.191345%)" offset="0.394531"/><stop stop-opacity="1" stop-color="rgb(12.896729%, 59.666443%, 85.018921%)" offset="0.398438"/><stop stop-opacity="1" stop-color="rgb(12.767029%, 59.356689%, 84.844971%)" offset="0.402344"/><stop stop-opacity="1" stop-color="rgb(12.637329%, 59.048462%, 84.672546%)" offset="0.40625"/><stop stop-opacity="1" stop-color="rgb(12.507629%, 58.740234%, 84.498596%)" offset="0.410156"/><stop stop-opacity="1" stop-color="rgb(12.37793%, 58.432007%, 84.326172%)" offset="0.414062"/><stop stop-opacity="1" stop-color="rgb(12.24823%, 58.123779%, 84.152222%)" offset="0.417969"/><stop stop-opacity="1" stop-color="rgb(12.11853%, 57.815552%, 83.979797%)" offset="0.421875"/><stop stop-opacity="1" stop-color="rgb(11.988831%, 57.507324%, 83.805847%)" offset="0.425781"/><stop stop-opacity="1" stop-color="rgb(11.859131%, 57.199097%, 83.633423%)" offset="0.429688"/><stop stop-opacity="1" stop-color="rgb(11.729431%, 56.889343%, 83.459473%)" offset="0.433594"/><stop stop-opacity="1" stop-color="rgb(11.599731%, 56.581116%, 83.287048%)" offset="0.4375"/><stop stop-opacity="1" stop-color="rgb(11.470032%, 56.272888%, 83.113098%)" offset="0.441406"/><stop stop-opacity="1" stop-color="rgb(11.340332%, 55.964661%, 82.940674%)" offset="0.445313"/><stop stop-opacity="1" stop-color="rgb(11.210632%, 55.656433%, 82.766724%)" offset="0.449219"/><stop stop-opacity="1" stop-color="rgb(11.080933%, 55.348206%, 82.594299%)" offset="0.453125"/><stop stop-opacity="1" stop-color="rgb(10.951233%, 55.038452%, 82.420349%)" offset="0.457031"/><stop stop-opacity="1" stop-color="rgb(10.821533%, 54.730225%, 82.247925%)" offset="0.460938"/><stop stop-opacity="1" stop-color="rgb(10.691833%, 54.421997%, 82.073975%)" offset="0.464844"/><stop stop-opacity="1" stop-color="rgb(10.562134%, 54.11377%, 81.90155%)" offset="0.46875"/><stop stop-opacity="1" stop-color="rgb(10.432434%, 53.805542%, 81.7276%)" offset="0.472656"/><stop stop-opacity="1" stop-color="rgb(10.302734%, 53.497314%, 81.555176%)" offset="0.476562"/><stop stop-opacity="1" stop-color="rgb(10.173035%, 53.187561%, 81.381226%)" offset="0.480469"/><stop stop-opacity="1" stop-color="rgb(10.043335%, 52.879333%, 81.208801%)" offset="0.484375"/><stop stop-opacity="1" stop-color="rgb(9.913635%, 52.571106%, 81.034851%)" offset="0.488281"/><stop stop-opacity="1" stop-color="rgb(9.783936%, 52.262878%, 80.862427%)" offset="0.492188"/><stop stop-opacity="1" stop-color="rgb(9.654236%, 51.954651%, 80.688477%)" offset="0.496094"/><stop stop-opacity="1" stop-color="rgb(9.524536%, 51.646423%, 80.516052%)" offset="0.5"/><stop stop-opacity="1" stop-color="rgb(9.394836%, 51.33667%, 80.342102%)" offset="0.503906"/><stop stop-opacity="1" stop-color="rgb(9.265137%, 51.028442%, 80.169678%)" offset="0.507812"/><stop stop-opacity="1" stop-color="rgb(9.135437%, 50.720215%, 79.995728%)" offset="0.511719"/><stop stop-opacity="1" stop-color="rgb(9.005737%, 50.411987%, 79.823303%)" offset="0.515625"/><stop stop-opacity="1" stop-color="rgb(8.876038%, 50.10376%, 79.649353%)" offset="0.519531"/><stop stop-opacity="1" stop-color="rgb(8.746338%, 49.795532%, 79.476929%)" offset="0.523438"/><stop stop-opacity="1" stop-color="rgb(8.615112%, 49.485779%, 79.302979%)" offset="0.527344"/><stop stop-opacity="1" stop-color="rgb(8.485413%, 49.177551%, 79.130554%)" offset="0.53125"/><stop stop-opacity="1" stop-color="rgb(8.355713%, 48.869324%, 78.956604%)" offset="0.535156"/><stop stop-opacity="1" stop-color="rgb(8.226013%, 48.561096%, 78.78418%)" offset="0.539062"/><stop stop-opacity="1" stop-color="rgb(8.096313%, 48.252869%, 78.610229%)" offset="0.542969"/><stop stop-opacity="1" stop-color="rgb(7.966614%, 47.944641%, 78.437805%)" offset="0.546875"/><stop stop-opacity="1" stop-color="rgb(7.836914%, 47.634888%, 78.263855%)" offset="0.550781"/><stop stop-opacity="1" stop-color="rgb(7.707214%, 47.32666%, 78.091431%)" offset="0.554688"/><stop stop-opacity="1" stop-color="rgb(7.577515%, 47.018433%, 77.91748%)" offset="0.558594"/><stop stop-opacity="1" stop-color="rgb(7.447815%, 46.710205%, 77.745056%)" offset="0.5625"/><stop stop-opacity="1" stop-color="rgb(7.318115%, 46.401978%, 77.571106%)" offset="0.566406"/><stop stop-opacity="1" stop-color="rgb(7.188416%, 46.09375%, 77.398682%)" offset="0.570313"/><stop stop-opacity="1" stop-color="rgb(7.058716%, 45.783997%, 77.224731%)" offset="0.574219"/><stop stop-opacity="1" stop-color="rgb(6.929016%, 45.475769%, 77.052307%)" offset="0.578125"/><stop stop-opacity="1" stop-color="rgb(6.799316%, 45.167542%, 76.878357%)" offset="0.582031"/><stop stop-opacity="1" stop-color="rgb(6.669617%, 44.859314%, 76.704407%)" offset="0.585938"/><stop stop-opacity="1" stop-color="rgb(6.539917%, 44.551086%, 76.530457%)" offset="0.589844"/><stop stop-opacity="1" stop-color="rgb(6.410217%, 44.242859%, 76.358032%)" offset="0.59375"/><stop stop-opacity="1" stop-color="rgb(6.280518%, 43.934631%, 76.184082%)" offset="0.597656"/><stop stop-opacity="1" stop-color="rgb(6.150818%, 43.626404%, 76.011658%)" offset="0.601562"/><stop stop-opacity="1" stop-color="rgb(6.021118%, 43.31665%, 75.837708%)" offset="0.605469"/><stop stop-opacity="1" stop-color="rgb(5.891418%, 43.008423%, 75.665283%)" offset="0.609375"/><stop stop-opacity="1" stop-color="rgb(5.761719%, 42.700195%, 75.491333%)" offset="0.613281"/><stop stop-opacity="1" stop-color="rgb(5.632019%, 42.391968%, 75.318909%)" offset="0.617188"/><stop stop-opacity="1" stop-color="rgb(5.502319%, 42.08374%, 75.144958%)" offset="0.621094"/><stop stop-opacity="1" stop-color="rgb(5.37262%, 41.775513%, 74.972534%)" offset="0.625"/><stop stop-opacity="1" stop-color="rgb(5.24292%, 41.465759%, 74.798584%)" offset="0.628906"/><stop stop-opacity="1" stop-color="rgb(5.11322%, 41.157532%, 74.62616%)" offset="0.632812"/><stop stop-opacity="1" stop-color="rgb(4.983521%, 40.849304%, 74.452209%)" offset="0.636719"/><stop stop-opacity="1" stop-color="rgb(4.853821%, 40.541077%, 74.279785%)" offset="0.640625"/><stop stop-opacity="1" stop-color="rgb(4.724121%, 40.232849%, 74.105835%)" offset="0.644531"/><stop stop-opacity="1" stop-color="rgb(4.594421%, 39.924622%, 73.933411%)" offset="0.648438"/><stop stop-opacity="1" stop-color="rgb(4.464722%, 39.614868%, 73.75946%)" offset="0.652344"/><stop stop-opacity="1" stop-color="rgb(4.335022%, 39.306641%, 73.587036%)" offset="0.65625"/><stop stop-opacity="1" stop-color="rgb(4.205322%, 38.998413%, 73.413086%)" offset="0.660156"/><stop stop-opacity="1" stop-color="rgb(4.075623%, 38.690186%, 73.240662%)" offset="0.664063"/><stop stop-opacity="1" stop-color="rgb(3.945923%, 38.381958%, 73.066711%)" offset="0.667969"/><stop stop-opacity="1" stop-color="rgb(3.816223%, 38.07373%, 72.894287%)" offset="0.671875"/><stop stop-opacity="1" stop-color="rgb(3.686523%, 37.763977%, 72.720337%)" offset="0.675781"/><stop stop-opacity="1" stop-color="rgb(3.556824%, 37.45575%, 72.547913%)" offset="0.679688"/><stop stop-opacity="1" stop-color="rgb(3.425598%, 37.147522%, 72.373962%)" offset="0.683594"/><stop stop-opacity="1" stop-color="rgb(3.295898%, 36.839294%, 72.201538%)" offset="0.6875"/><stop stop-opacity="1" stop-color="rgb(3.166199%, 36.531067%, 72.027588%)" offset="0.691406"/><stop stop-opacity="1" stop-color="rgb(3.036499%, 36.222839%, 71.855164%)" offset="0.695312"/><stop stop-opacity="1" stop-color="rgb(2.906799%, 35.913086%, 71.681213%)" offset="0.699219"/><stop stop-opacity="1" stop-color="rgb(2.7771%, 35.604858%, 71.508789%)" offset="0.703125"/><stop stop-opacity="1" stop-color="rgb(2.6474%, 35.296631%, 71.334839%)" offset="0.707031"/><stop stop-opacity="1" stop-color="rgb(2.5177%, 34.988403%, 71.162415%)" offset="0.710938"/><stop stop-opacity="1" stop-color="rgb(2.388%, 34.680176%, 70.988464%)" offset="0.714844"/><stop stop-opacity="1" stop-color="rgb(2.258301%, 34.371948%, 70.81604%)" offset="0.71875"/><stop stop-opacity="1" stop-color="rgb(2.128601%, 34.062195%, 70.64209%)" offset="0.722656"/><stop stop-opacity="1" stop-color="rgb(1.998901%, 33.753967%, 70.469666%)" offset="0.726563"/><stop stop-opacity="1" stop-color="rgb(1.869202%, 33.44574%, 70.295715%)" offset="0.730469"/><stop stop-opacity="1" stop-color="rgb(1.739502%, 33.137512%, 70.123291%)" offset="0.734375"/><stop stop-opacity="1" stop-color="rgb(1.609802%, 32.829285%, 69.949341%)" offset="0.738281"/><stop stop-opacity="1" stop-color="rgb(1.480103%, 32.521057%, 69.776917%)" offset="0.742188"/><stop stop-opacity="1" stop-color="rgb(1.350403%, 32.211304%, 69.602966%)" offset="0.746094"/><stop stop-opacity="1" stop-color="rgb(1.220703%, 31.903076%, 69.430542%)" offset="0.75"/><stop stop-opacity="1" stop-color="rgb(1.091003%, 31.594849%, 69.256592%)" offset="0.753906"/><stop stop-opacity="1" stop-color="rgb(0.961304%, 31.286621%, 69.084167%)" offset="0.757813"/><stop stop-opacity="1" stop-color="rgb(0.831604%, 30.978394%, 68.910217%)" offset="0.761719"/><stop stop-opacity="1" stop-color="rgb(0.701904%, 30.670166%, 68.737793%)" offset="0.765625"/><stop stop-opacity="1" stop-color="rgb(0.572205%, 30.361938%, 68.563843%)" offset="0.769531"/><stop stop-opacity="1" stop-color="rgb(0.442505%, 30.053711%, 68.391418%)" offset="0.773438"/><stop stop-opacity="1" stop-color="rgb(0.312805%, 29.743958%, 68.217468%)" offset="0.777344"/><stop stop-opacity="1" stop-color="rgb(0.183105%, 29.43573%, 68.045044%)" offset="0.78125"/><stop stop-opacity="1" stop-color="rgb(0.0915527%, 29.217529%, 67.921448%)" offset="0.785156"/><stop stop-opacity="1" stop-color="rgb(0%, 28.999329%, 67.799377%)" offset="0.789062"/><stop stop-opacity="1" stop-color="rgb(0%, 28.999329%, 67.799377%)" offset="0.796875"/><stop stop-opacity="1" stop-color="rgb(0%, 28.999329%, 67.799377%)" offset="0.8125"/><stop stop-opacity="1" stop-color="rgb(0%, 28.999329%, 67.799377%)" offset="0.875"/><stop stop-opacity="1" stop-color="rgb(0%, 28.999329%, 67.799377%)" offset="1"/></linearGradient></defs><g clip-path="url(#faf2f9f23e)"><g clip-path="url(#2c02faa968)"><path fill="url(#ec95229440)" d="M 25.480469 69.140625 L 25.480469 315.140625 L 337.480469 315.140625 L 337.480469 69.140625 Z M 25.480469 69.140625 " fill-rule="nonzero"/></g></g></svg>